<mxfile host="app.diagrams.net" modified="2024-06-02T07:03:56.141Z" agent="Mozilla/5.0 (Windows NT 10.0; Win64; x64) AppleWebKit/537.36 (KHTML, like Gecko) Chrome/125.0.0.0 Safari/537.36 Edg/125.0.0.0" etag="oo-3NAQo8whkA1VieGTc" version="24.4.13" type="device">
  <diagram name="Strona-1" id="GUvo6r90KIt3ZY9NUona">
    <mxGraphModel dx="2493" dy="793" grid="1" gridSize="10" guides="1" tooltips="1" connect="1" arrows="1" fold="1" page="1" pageScale="1" pageWidth="827" pageHeight="1169" math="0" shadow="0">
      <root>
        <mxCell id="0" />
        <mxCell id="1" parent="0" />
        <mxCell id="YIT1XyOWpIfWPcGahE9_-3" value="&lt;font style=&quot;font-size: 18px;&quot;&gt;D1&lt;/font&gt;" style="ellipse;whiteSpace=wrap;html=1;aspect=fixed;" parent="1" vertex="1">
          <mxGeometry x="70" y="130" width="80" height="80" as="geometry" />
        </mxCell>
        <mxCell id="YIT1XyOWpIfWPcGahE9_-4" value="&lt;font style=&quot;font-size: 18px;&quot;&gt;D2&lt;/font&gt;" style="ellipse;whiteSpace=wrap;html=1;aspect=fixed;" parent="1" vertex="1">
          <mxGeometry x="70" y="250" width="80" height="80" as="geometry" />
        </mxCell>
        <mxCell id="YIT1XyOWpIfWPcGahE9_-5" value="&lt;font style=&quot;font-size: 18px;&quot;&gt;T1&lt;/font&gt;&lt;span style=&quot;color: rgba(0, 0, 0, 0); font-family: monospace; font-size: 0px; text-align: start; text-wrap: nowrap;&quot;&gt;%3CmxGraphModel%3E%3Croot%3E%3CmxCell%20id%3D%220%22%2F%3E%3CmxCell%20id%3D%221%22%20parent%3D%220%22%2F%3E%3CmxCell%20id%3D%222%22%20value%3D%22%26lt%3Bfont%20style%3D%26quot%3Bfont-size%3A%2018px%3B%26quot%3B%26gt%3BD1%26lt%3B%2Ffont%26gt%3B%22%20style%3D%22ellipse%3BwhiteSpace%3Dwrap%3Bhtml%3D1%3Baspect%3Dfixed%3B%22%20vertex%3D%221%22%20parent%3D%221%22%3E%3CmxGeometry%20x%3D%22210%22%20y%3D%22130%22%20width%3D%2280%22%20height%3D%2280%22%20as%3D%22geometry%22%2F%3E%3C%2FmxCell%3E%3C%2Froot%3E%3C%2FmxGraphModel%3E&lt;/span&gt;" style="ellipse;whiteSpace=wrap;html=1;aspect=fixed;" parent="1" vertex="1">
          <mxGeometry x="827" y="100" width="80" height="80" as="geometry" />
        </mxCell>
        <mxCell id="YIT1XyOWpIfWPcGahE9_-6" value="&lt;span style=&quot;font-size: 18px;&quot;&gt;T2&lt;/span&gt;" style="ellipse;whiteSpace=wrap;html=1;aspect=fixed;" parent="1" vertex="1">
          <mxGeometry x="827" y="240" width="80" height="80" as="geometry" />
        </mxCell>
        <mxCell id="YIT1XyOWpIfWPcGahE9_-7" value="&lt;span style=&quot;font-size: 18px;&quot;&gt;A&lt;/span&gt;" style="ellipse;whiteSpace=wrap;html=1;aspect=fixed;" parent="1" vertex="1">
          <mxGeometry x="240" y="410" width="80" height="80" as="geometry" />
        </mxCell>
        <mxCell id="YIT1XyOWpIfWPcGahE9_-8" value="&lt;font size=&quot;3&quot;&gt;technician_exchange&lt;/font&gt;" style="rounded=0;whiteSpace=wrap;html=1;" parent="1" vertex="1">
          <mxGeometry x="250" y="210" width="170" height="60" as="geometry" />
        </mxCell>
        <mxCell id="YIT1XyOWpIfWPcGahE9_-9" value="" style="endArrow=classic;html=1;rounded=0;exitX=1.02;exitY=0.41;exitDx=0;exitDy=0;exitPerimeter=0;entryX=0;entryY=0.25;entryDx=0;entryDy=0;" parent="1" source="YIT1XyOWpIfWPcGahE9_-3" target="YIT1XyOWpIfWPcGahE9_-8" edge="1">
          <mxGeometry width="50" height="50" relative="1" as="geometry">
            <mxPoint x="180" y="170" as="sourcePoint" />
            <mxPoint x="230" y="120" as="targetPoint" />
          </mxGeometry>
        </mxCell>
        <mxCell id="YIT1XyOWpIfWPcGahE9_-11" value="" style="endArrow=classic;html=1;rounded=0;exitX=1;exitY=0.5;exitDx=0;exitDy=0;entryX=0;entryY=0.75;entryDx=0;entryDy=0;" parent="1" source="YIT1XyOWpIfWPcGahE9_-4" target="YIT1XyOWpIfWPcGahE9_-8" edge="1">
          <mxGeometry width="50" height="50" relative="1" as="geometry">
            <mxPoint x="160" y="310" as="sourcePoint" />
            <mxPoint x="210" y="260" as="targetPoint" />
          </mxGeometry>
        </mxCell>
        <mxCell id="YIT1XyOWpIfWPcGahE9_-12" value="&lt;font style=&quot;font-size: 18px;&quot;&gt;elbow_queue&lt;/font&gt;" style="ellipse;whiteSpace=wrap;html=1;" parent="1" vertex="1">
          <mxGeometry x="520" y="10" width="120" height="80" as="geometry" />
        </mxCell>
        <mxCell id="YIT1XyOWpIfWPcGahE9_-13" value="&lt;font style=&quot;font-size: 18px;&quot;&gt;hip_queue&lt;/font&gt;" style="ellipse;whiteSpace=wrap;html=1;" parent="1" vertex="1">
          <mxGeometry x="530" y="110" width="120" height="80" as="geometry" />
        </mxCell>
        <mxCell id="YIT1XyOWpIfWPcGahE9_-14" value="&lt;font style=&quot;font-size: 18px;&quot;&gt;knee_queue&lt;/font&gt;" style="ellipse;whiteSpace=wrap;html=1;" parent="1" vertex="1">
          <mxGeometry x="530" y="210" width="120" height="80" as="geometry" />
        </mxCell>
        <mxCell id="YIT1XyOWpIfWPcGahE9_-15" value="&lt;font style=&quot;font-size: 18px;&quot;&gt;name_queue&lt;/font&gt;" style="ellipse;whiteSpace=wrap;html=1;" parent="1" vertex="1">
          <mxGeometry x="530" y="305" width="120" height="80" as="geometry" />
        </mxCell>
        <mxCell id="YIT1XyOWpIfWPcGahE9_-16" value="" style="endArrow=classic;html=1;rounded=0;entryX=0;entryY=0.5;entryDx=0;entryDy=0;" parent="1" target="YIT1XyOWpIfWPcGahE9_-12" edge="1">
          <mxGeometry width="50" height="50" relative="1" as="geometry">
            <mxPoint x="380" y="200" as="sourcePoint" />
            <mxPoint x="440" y="270" as="targetPoint" />
          </mxGeometry>
        </mxCell>
        <mxCell id="YIT1XyOWpIfWPcGahE9_-18" value="" style="endArrow=classic;html=1;rounded=0;exitX=1.012;exitY=0.12;exitDx=0;exitDy=0;exitPerimeter=0;entryX=0;entryY=0.5;entryDx=0;entryDy=0;" parent="1" source="YIT1XyOWpIfWPcGahE9_-8" target="YIT1XyOWpIfWPcGahE9_-13" edge="1">
          <mxGeometry width="50" height="50" relative="1" as="geometry">
            <mxPoint x="390" y="320" as="sourcePoint" />
            <mxPoint x="440" y="270" as="targetPoint" />
          </mxGeometry>
        </mxCell>
        <mxCell id="YIT1XyOWpIfWPcGahE9_-19" value="" style="endArrow=classic;html=1;rounded=0;exitX=1;exitY=0.75;exitDx=0;exitDy=0;entryX=0;entryY=0.5;entryDx=0;entryDy=0;" parent="1" source="YIT1XyOWpIfWPcGahE9_-8" target="YIT1XyOWpIfWPcGahE9_-14" edge="1">
          <mxGeometry width="50" height="50" relative="1" as="geometry">
            <mxPoint x="390" y="320" as="sourcePoint" />
            <mxPoint x="440" y="270" as="targetPoint" />
          </mxGeometry>
        </mxCell>
        <mxCell id="YIT1XyOWpIfWPcGahE9_-20" value="" style="endArrow=classic;html=1;rounded=0;exitX=0.75;exitY=1;exitDx=0;exitDy=0;entryX=0;entryY=0.5;entryDx=0;entryDy=0;" parent="1" source="YIT1XyOWpIfWPcGahE9_-8" target="YIT1XyOWpIfWPcGahE9_-15" edge="1">
          <mxGeometry width="50" height="50" relative="1" as="geometry">
            <mxPoint x="390" y="320" as="sourcePoint" />
            <mxPoint x="440" y="270" as="targetPoint" />
          </mxGeometry>
        </mxCell>
        <mxCell id="YIT1XyOWpIfWPcGahE9_-21" value="&lt;font style=&quot;font-size: 18px;&quot;&gt;key: elbow&lt;/font&gt;" style="text;html=1;align=center;verticalAlign=middle;whiteSpace=wrap;rounded=0;" parent="1" vertex="1">
          <mxGeometry x="350" y="110" width="90" height="30" as="geometry" />
        </mxCell>
        <mxCell id="YIT1XyOWpIfWPcGahE9_-22" value="&lt;font style=&quot;font-size: 18px;&quot;&gt;key: hip&lt;/font&gt;" style="text;html=1;align=center;verticalAlign=middle;whiteSpace=wrap;rounded=0;" parent="1" vertex="1">
          <mxGeometry x="430" y="150" width="90" height="30" as="geometry" />
        </mxCell>
        <mxCell id="YIT1XyOWpIfWPcGahE9_-23" value="&lt;font style=&quot;font-size: 18px;&quot;&gt;key: knee&lt;/font&gt;" style="text;html=1;align=center;verticalAlign=middle;whiteSpace=wrap;rounded=0;" parent="1" vertex="1">
          <mxGeometry x="440" y="220" width="90" height="30" as="geometry" />
        </mxCell>
        <mxCell id="YIT1XyOWpIfWPcGahE9_-24" value="&lt;font style=&quot;font-size: 18px;&quot;&gt;key: #&lt;/font&gt;" style="text;html=1;align=center;verticalAlign=middle;whiteSpace=wrap;rounded=0;" parent="1" vertex="1">
          <mxGeometry x="340" y="320" width="90" height="30" as="geometry" />
        </mxCell>
        <mxCell id="YIT1XyOWpIfWPcGahE9_-25" value="&lt;font style=&quot;font-size: 18px;&quot;&gt;admin_queue&lt;/font&gt;" style="ellipse;whiteSpace=wrap;html=1;" parent="1" vertex="1">
          <mxGeometry x="510" y="410" width="120" height="80" as="geometry" />
        </mxCell>
        <mxCell id="YIT1XyOWpIfWPcGahE9_-26" value="" style="endArrow=classic;html=1;rounded=0;exitX=0.607;exitY=0.987;exitDx=0;exitDy=0;exitPerimeter=0;" parent="1" source="YIT1XyOWpIfWPcGahE9_-8" target="YIT1XyOWpIfWPcGahE9_-25" edge="1">
          <mxGeometry width="50" height="50" relative="1" as="geometry">
            <mxPoint x="390" y="320" as="sourcePoint" />
            <mxPoint x="440" y="270" as="targetPoint" />
          </mxGeometry>
        </mxCell>
        <mxCell id="YIT1XyOWpIfWPcGahE9_-28" value="&lt;font style=&quot;font-size: 18px;&quot;&gt;key: name&lt;/font&gt;" style="text;html=1;align=center;verticalAlign=middle;whiteSpace=wrap;rounded=0;" parent="1" vertex="1">
          <mxGeometry x="440" y="280" width="90" height="30" as="geometry" />
        </mxCell>
        <mxCell id="YIT1XyOWpIfWPcGahE9_-36" value="" style="endArrow=classic;startArrow=classic;html=1;rounded=0;exitX=0.5;exitY=0;exitDx=0;exitDy=0;entryX=0.5;entryY=1;entryDx=0;entryDy=0;" parent="1" source="YIT1XyOWpIfWPcGahE9_-6" target="YIT1XyOWpIfWPcGahE9_-5" edge="1">
          <mxGeometry width="50" height="50" relative="1" as="geometry">
            <mxPoint x="800" y="250" as="sourcePoint" />
            <mxPoint x="870" y="190" as="targetPoint" />
          </mxGeometry>
        </mxCell>
        <mxCell id="YIT1XyOWpIfWPcGahE9_-37" value="" style="endArrow=none;html=1;rounded=0;" parent="1" edge="1">
          <mxGeometry width="50" height="50" relative="1" as="geometry">
            <mxPoint x="760" y="350" as="sourcePoint" />
            <mxPoint x="760" y="50" as="targetPoint" />
          </mxGeometry>
        </mxCell>
        <mxCell id="YIT1XyOWpIfWPcGahE9_-38" value="" style="endArrow=none;html=1;rounded=0;exitX=1;exitY=0.5;exitDx=0;exitDy=0;" parent="1" source="YIT1XyOWpIfWPcGahE9_-12" edge="1">
          <mxGeometry width="50" height="50" relative="1" as="geometry">
            <mxPoint x="390" y="320" as="sourcePoint" />
            <mxPoint x="760" y="50" as="targetPoint" />
          </mxGeometry>
        </mxCell>
        <mxCell id="YIT1XyOWpIfWPcGahE9_-39" value="" style="endArrow=none;html=1;rounded=0;exitX=1;exitY=0.5;exitDx=0;exitDy=0;" parent="1" source="YIT1XyOWpIfWPcGahE9_-13" edge="1">
          <mxGeometry width="50" height="50" relative="1" as="geometry">
            <mxPoint x="690" y="460" as="sourcePoint" />
            <mxPoint x="760" y="150" as="targetPoint" />
          </mxGeometry>
        </mxCell>
        <mxCell id="YIT1XyOWpIfWPcGahE9_-40" value="" style="endArrow=none;html=1;rounded=0;exitX=1;exitY=0.5;exitDx=0;exitDy=0;" parent="1" source="YIT1XyOWpIfWPcGahE9_-14" edge="1">
          <mxGeometry width="50" height="50" relative="1" as="geometry">
            <mxPoint x="660" y="250" as="sourcePoint" />
            <mxPoint x="760" y="250" as="targetPoint" />
          </mxGeometry>
        </mxCell>
        <mxCell id="YIT1XyOWpIfWPcGahE9_-41" value="" style="endArrow=none;html=1;rounded=0;exitX=1;exitY=0.5;exitDx=0;exitDy=0;" parent="1" source="YIT1XyOWpIfWPcGahE9_-15" edge="1">
          <mxGeometry width="50" height="50" relative="1" as="geometry">
            <mxPoint x="670" y="460" as="sourcePoint" />
            <mxPoint x="760" y="350" as="targetPoint" />
          </mxGeometry>
        </mxCell>
        <mxCell id="YIT1XyOWpIfWPcGahE9_-42" value="" style="endArrow=none;html=1;rounded=0;" parent="1" edge="1">
          <mxGeometry width="50" height="50" relative="1" as="geometry">
            <mxPoint x="760" y="210" as="sourcePoint" />
            <mxPoint x="870" y="210" as="targetPoint" />
          </mxGeometry>
        </mxCell>
        <mxCell id="YIT1XyOWpIfWPcGahE9_-43" value="" style="endArrow=classic;html=1;rounded=0;exitX=0;exitY=0.5;exitDx=0;exitDy=0;entryX=1;entryY=0.5;entryDx=0;entryDy=0;" parent="1" source="YIT1XyOWpIfWPcGahE9_-25" target="YIT1XyOWpIfWPcGahE9_-7" edge="1">
          <mxGeometry width="50" height="50" relative="1" as="geometry">
            <mxPoint x="390" y="320" as="sourcePoint" />
            <mxPoint x="440" y="270" as="targetPoint" />
          </mxGeometry>
        </mxCell>
        <mxCell id="YIT1XyOWpIfWPcGahE9_-44" value="&lt;font size=&quot;3&quot;&gt;doctor_exchange&lt;/font&gt;" style="rounded=0;whiteSpace=wrap;html=1;" parent="1" vertex="1">
          <mxGeometry x="485" y="540" width="170" height="60" as="geometry" />
        </mxCell>
        <mxCell id="YIT1XyOWpIfWPcGahE9_-45" value="" style="endArrow=none;html=1;rounded=0;exitX=1;exitY=0.5;exitDx=0;exitDy=0;entryX=0.968;entryY=0.385;entryDx=0;entryDy=0;entryPerimeter=0;" parent="1" source="YIT1XyOWpIfWPcGahE9_-6" target="YIT1XyOWpIfWPcGahE9_-5" edge="1">
          <mxGeometry width="50" height="50" relative="1" as="geometry">
            <mxPoint x="390" y="320" as="sourcePoint" />
            <mxPoint x="440" y="270" as="targetPoint" />
            <Array as="points">
              <mxPoint x="980" y="280" />
              <mxPoint x="980" y="131" />
            </Array>
          </mxGeometry>
        </mxCell>
        <mxCell id="YIT1XyOWpIfWPcGahE9_-46" value="" style="endArrow=classic;html=1;rounded=0;entryX=1;entryY=0.5;entryDx=0;entryDy=0;" parent="1" target="YIT1XyOWpIfWPcGahE9_-44" edge="1">
          <mxGeometry width="50" height="50" relative="1" as="geometry">
            <mxPoint x="981.5999755859375" y="200" as="sourcePoint" />
            <mxPoint x="440" y="270" as="targetPoint" />
            <Array as="points">
              <mxPoint x="1050" y="200" />
              <mxPoint x="1060" y="570" />
            </Array>
          </mxGeometry>
        </mxCell>
        <mxCell id="YIT1XyOWpIfWPcGahE9_-47" value="&lt;font style=&quot;font-size: 18px;&quot;&gt;doctor_queue&lt;/font&gt;" style="ellipse;whiteSpace=wrap;html=1;" parent="1" vertex="1">
          <mxGeometry x="50" y="430" width="120" height="80" as="geometry" />
        </mxCell>
        <mxCell id="YIT1XyOWpIfWPcGahE9_-49" value="" style="endArrow=classic;html=1;rounded=0;exitX=0.5;exitY=0;exitDx=0;exitDy=0;entryX=0.5;entryY=1;entryDx=0;entryDy=0;" parent="1" source="YIT1XyOWpIfWPcGahE9_-44" target="YIT1XyOWpIfWPcGahE9_-25" edge="1">
          <mxGeometry width="50" height="50" relative="1" as="geometry">
            <mxPoint x="320" y="450" as="sourcePoint" />
            <mxPoint x="370" y="400" as="targetPoint" />
          </mxGeometry>
        </mxCell>
        <mxCell id="YIT1XyOWpIfWPcGahE9_-50" value="&lt;font style=&quot;font-size: 18px;&quot;&gt;key: #&lt;/font&gt;" style="text;html=1;align=center;verticalAlign=middle;whiteSpace=wrap;rounded=0;" parent="1" vertex="1">
          <mxGeometry x="560" y="500" width="90" height="30" as="geometry" />
        </mxCell>
        <mxCell id="YIT1XyOWpIfWPcGahE9_-51" value="" style="endArrow=classic;html=1;rounded=0;entryX=0.5;entryY=1;entryDx=0;entryDy=0;" parent="1" target="YIT1XyOWpIfWPcGahE9_-47" edge="1">
          <mxGeometry width="50" height="50" relative="1" as="geometry">
            <mxPoint x="480" y="570" as="sourcePoint" />
            <mxPoint x="370" y="400" as="targetPoint" />
            <Array as="points">
              <mxPoint x="110" y="580" />
            </Array>
          </mxGeometry>
        </mxCell>
        <mxCell id="YIT1XyOWpIfWPcGahE9_-52" value="&lt;font style=&quot;font-size: 18px;&quot;&gt;key: name&lt;/font&gt;" style="text;html=1;align=center;verticalAlign=middle;whiteSpace=wrap;rounded=0;" parent="1" vertex="1">
          <mxGeometry x="170" y="540" width="90" height="30" as="geometry" />
        </mxCell>
        <mxCell id="YIT1XyOWpIfWPcGahE9_-55" value="" style="endArrow=none;html=1;rounded=0;exitX=0;exitY=0.5;exitDx=0;exitDy=0;" parent="1" source="YIT1XyOWpIfWPcGahE9_-47" edge="1">
          <mxGeometry width="50" height="50" relative="1" as="geometry">
            <mxPoint x="320" y="340" as="sourcePoint" />
            <mxPoint y="160" as="targetPoint" />
            <Array as="points">
              <mxPoint y="470" />
            </Array>
          </mxGeometry>
        </mxCell>
        <mxCell id="YIT1XyOWpIfWPcGahE9_-56" value="" style="endArrow=classic;html=1;rounded=0;" parent="1" edge="1">
          <mxGeometry width="50" height="50" relative="1" as="geometry">
            <mxPoint y="160" as="sourcePoint" />
            <mxPoint x="70" y="160" as="targetPoint" />
          </mxGeometry>
        </mxCell>
        <mxCell id="YIT1XyOWpIfWPcGahE9_-57" value="" style="endArrow=classic;html=1;rounded=0;" parent="1" edge="1">
          <mxGeometry width="50" height="50" relative="1" as="geometry">
            <mxPoint y="290" as="sourcePoint" />
            <mxPoint x="70" y="290" as="targetPoint" />
          </mxGeometry>
        </mxCell>
        <mxCell id="NkBmiQQkcdL8mAqbQd5v-1" value="" style="endArrow=classic;html=1;rounded=0;exitX=0.5;exitY=0;exitDx=0;exitDy=0;" edge="1" parent="1" source="YIT1XyOWpIfWPcGahE9_-7">
          <mxGeometry width="50" height="50" relative="1" as="geometry">
            <mxPoint x="550" y="410" as="sourcePoint" />
            <mxPoint x="280" y="270" as="targetPoint" />
          </mxGeometry>
        </mxCell>
        <mxCell id="NkBmiQQkcdL8mAqbQd5v-2" value="" style="endArrow=classic;html=1;rounded=0;exitX=0.5;exitY=1;exitDx=0;exitDy=0;entryX=0.041;entryY=-0.05;entryDx=0;entryDy=0;entryPerimeter=0;" edge="1" parent="1" source="YIT1XyOWpIfWPcGahE9_-7" target="YIT1XyOWpIfWPcGahE9_-44">
          <mxGeometry width="50" height="50" relative="1" as="geometry">
            <mxPoint x="550" y="380" as="sourcePoint" />
            <mxPoint x="600" y="330" as="targetPoint" />
            <Array as="points">
              <mxPoint x="492" y="490" />
            </Array>
          </mxGeometry>
        </mxCell>
      </root>
    </mxGraphModel>
  </diagram>
</mxfile>
